<svg height="512" viewBox="0 0 64 64" width="512" xmlns="http://www.w3.org/2000/svg" xmlns:xlink="http://www.w3.org/1999/xlink"><linearGradient id="New_Gradient_Swatch_1" gradientUnits="userSpaceOnUse" x1="32" x2="32" y1="-3.604" y2="66.371"><stop offset="0" stop-color="#fff33b"/><stop offset=".014" stop-color="#fee72e"/><stop offset=".042" stop-color="#fed51b"/><stop offset=".07" stop-color="#fdca10"/><stop offset=".1" stop-color="#fdc70c"/><stop offset=".4" stop-color="#f3903f"/><stop offset=".8" stop-color="#ed683c"/><stop offset="1" stop-color="#e93e3a"/></linearGradient><linearGradient id="New_Gradient_Swatch_1-4" x1="40" x2="40" xlink:href="#New_Gradient_Swatch_1" y1="-3.604" y2="66.371"/><linearGradient id="New_Gradient_Swatch_1-5" x1="40.415" x2="40.415" xlink:href="#New_Gradient_Swatch_1" y1="-3.604" y2="66.371"/><linearGradient id="New_Gradient_Swatch_1-6" x1="21" x2="21" xlink:href="#New_Gradient_Swatch_1" y1="-3.604" y2="66.371"/><g id="home-working-file-check-document"><g fill="url(#New_Gradient_Swatch_1)"><path d="m59.18 25.17a2.923 2.923 0 0 0 .83-.12 2.963 2.963 0 0 0 1.85-1.54l.21-.41a3.022 3.022 0 0 0 -1.14-3.91l-27.39-16.43a2.988 2.988 0 0 0 -3.08 0l-27.39 16.43a3.022 3.022 0 0 0 -1.14 3.91l.21.41a2.963 2.963 0 0 0 1.85 1.54 2.9 2.9 0 0 0 2.01-.14v31.09h-1a3 3 0 0 0 0 6h54a3 3 0 0 0 0-6h-1v-31.1a3.033 3.033 0 0 0 1.18.27zm-.18 32.83a1 1 0 0 1 0 2h-54a1 1 0 0 1 0-2zm-51-2v-32.24l23.48-14.14a1.02 1.02 0 0 1 1.04 0l23.48 14.14v32.24zm25.55-48.09a3.009 3.009 0 0 0 -3.1 0l-25.11 15.12a1.018 1.018 0 0 1 -.8.1.972.972 0 0 1 -.61-.51l-.21-.41a1.021 1.021 0 0 1 .38-1.31l27.38-16.42a.98.98 0 0 1 1.03-.01l27.39 16.43a1.021 1.021 0 0 1 .38 1.31l-.21.41a.972.972 0 0 1 -.61.51 1.023 1.023 0 0 1 -.8-.1z"/><path d="m53 26h-42a1 1 0 0 0 -1 1v26a1 1 0 0 0 1 1h42a1 1 0 0 0 1-1v-26a1 1 0 0 0 -1-1zm-1 26h-40v-24h40z"/><path d="m36 14h-8a1 1 0 0 0 -1 1v8a1 1 0 0 0 1 1h8a1 1 0 0 0 1-1v-8a1 1 0 0 0 -1-1zm-5 8h-2v-2h2zm0-4h-2v-2h2zm4 4h-2v-2h2zm0-4h-2v-2h2z"/></g><path d="m40 50a10 10 0 1 0 -10-10 10.011 10.011 0 0 0 10 10zm0-18a8 8 0 1 1 -8 8 8.009 8.009 0 0 1 8-8z" fill="url(#New_Gradient_Swatch_1-4)"/><path d="m39 44a1 1 0 0 0 .707-.293l5.657-5.657-1.414-1.414-4.95 4.95-2.121-2.122-1.414 1.414 2.828 2.829a1 1 0 0 0 .707.293z" fill="url(#New_Gradient_Swatch_1-5)"/><path d="m18 40h6v2h-6z" fill="url(#New_Gradient_Swatch_1-6)"/><path d="m18 44h6v2h-6z" fill="url(#New_Gradient_Swatch_1-6)"/><path d="m27.71 36.29-6-6a1.033 1.033 0 0 0 -.71-.29h-6a1 1 0 0 0 -1 1v18a1 1 0 0 0 1 1h12a1 1 0 0 0 1-1v-12a1.033 1.033 0 0 0 -.29-.71zm-5.71-2.88 2.59 2.59h-2.59zm4 14.59h-10v-16h4v5a1 1 0 0 0 1 1h5z" fill="url(#New_Gradient_Swatch_1-6)"/></g></svg>